# xmcd CD database file
#
# Track frame offsets:
#	150
#	20662
#	40475
#	58930
#	75202
#	92002
#	111340
#	130055
#	148567
#	168752
#	188200
#	206662
#	224390
#	241502
#	260295
#
# Disc length: 3701 seconds
#
# Revision: 2
# Processed by: cddbd v1.5.2PL0 Copyright (c) Steve Scherf et al.
# Submitted via: CDex 1.70beta2
#
DISCID=cb0e730f
DTITLE=As One - vol. II
DYEAR=2001
DGENRE=R&B
TTITLE0=천만에요
TTITLE1=행복한 날들
TTITLE2=SOMEDAY
TTITLE3=ALWAYS
TTITLE4=투정
TTITLE5=소망
TTITLE6=단
TTITLE7=원하고 원망하죠
TTITLE8=MAMA
TTITLE9=신기루
TTITLE10=보헤미안
TTITLE11=FOREVER AS ONE
TTITLE12=그대 없는 내가 그렇죠
TTITLE13=비밀
TTITLE14=DON'T GO AWAY
EXTD=YEAR: 2001
EXTT0=
EXTT1=
EXTT2=
EXTT3=
EXTT4=
EXTT5=
EXTT6=
EXTT7=
EXTT8=
EXTT9=
EXTT10=
EXTT11=
EXTT12=
EXTT13=
EXTT14=
PLAYORDER=
